<?xml version="1.0" encoding="utf-8"?>
<!-- Generator: Adobe Illustrator 24.0.1, SVG Export Plug-In . SVG Version: 6.00 Build 0)  -->
<svg version="1.1" id="圖層_1" xmlns="http://www.w3.org/2000/svg" xmlns:xlink="http://www.w3.org/1999/xlink" x="0px" y="0px"
	 viewBox="0 0 36 24" style="enable-background:new 0 0 36 24;" xml:space="preserve">
<style type="text/css">
	.st0{fill:#363737;}
	.st1{fill:#AFACAC;}
</style>
<path class="st0" d="M25.45,10.33c0,0.41-1.42,2.32-4.27,5.71c-2.34,2.79-4.17,4.18-5.5,4.18c-0.88,0-1.63-0.34-2.23-1.03
	c-0.6-0.69-0.9-1.53-0.9-2.53c0-0.88,0.18-1.7,0.54-2.46c0.36-0.75,1.31-2.25,2.84-4.49c1.59-2.35,2.38-3.85,2.38-4.5
	c0-0.8-0.42-1.21-1.26-1.21c-2.86,0-7.27,5.31-13.24,15.94c-0.96-0.08-1.54-0.12-1.74-0.12c-0.69,0-1.33,0.04-1.94,0.12l4.59-7.26
	c2.61-4.16,3.91-6.75,3.91-7.79c0-0.59-0.25-0.88-0.74-0.88c-1,0-2.98,2.11-5.93,6.34c-0.18,0.25-0.31,0.39-0.41,0.41
	c-0.1,0-0.16-0.06-0.18-0.18c0.02-0.1,0.06-0.18,0.12-0.24l0.56-0.74c3-4.03,5.03-6.04,6.07-6.04c0.67,0,1.24,0.3,1.71,0.91
	s0.71,1.33,0.71,2.18c0,1.25-0.74,3-2.21,5.24c2.31-3.2,4.09-5.38,5.34-6.56s2.4-1.76,3.46-1.76c0.86,0,1.59,0.35,2.18,1.06
	s0.88,1.58,0.88,2.62c0,1.31-0.9,3.32-2.71,6.03c-1.84,2.76-2.76,4.53-2.76,5.29c0,0.8,0.4,1.21,1.21,1.21
	c1.75,0,4.76-3.11,9.04-9.34c0.1-0.2,0.2-0.29,0.29-0.29C25.39,10.16,25.45,10.22,25.45,10.33z"/>
<path class="st0" d="M35.86,5.73c0,0.67-0.29,1.28-0.87,1.85c-0.58,0.57-1.21,0.85-1.9,0.85c-0.8,0-1.21-0.42-1.21-1.26
	c0-0.63,0.29-1.24,0.87-1.82c0.58-0.59,1.19-0.88,1.84-0.88C35.44,4.47,35.86,4.89,35.86,5.73z"/>
<path class="st0" d="M31.86,10.19c-0.18,0-0.38,0.2-0.62,0.59c-1.86,2.47-3.59,4.4-5.19,5.81c-1.21,1.07-2.78,2.14-4.53,3.21
	c-0.1,0.21-0.2,0.39-0.31,0.62c3.09-1.89,5.62-3.9,7.52-6.03C30.92,11.96,32,10.6,32,10.3C31.98,10.23,31.93,10.19,31.86,10.19z"/>
</svg>
